<svg width="14" height="10" viewBox="0 0 14 10" fill="none" xmlns="http://www.w3.org/2000/svg">
<path d="M11.5 3.93683V1.3592C11.4993 0.884914 11.052 0.500561 10.5 0.5H3.5C2.94799 0.500561 2.50065 0.884914 2.5 1.3592V3.93683C1.67197 3.93766 1.00096 4.51419 1 5.22564L1 8.66247C1 8.82085 1.10147 8.96641 1.26403 9.04118C1.42664 9.11595 1.62389 9.10776 1.77731 9.0199L2.5 8.60597V9.09207H3.5V8.23286H10.5V9.09207H11.5V8.60597L12.2226 9.0199C12.376 9.10779 12.5733 9.11599 12.7359 9.04124C12.8985 8.96649 13 8.82091 13 8.66247V5.22564C12.999 4.51419 12.328 3.93766 11.5 3.93683ZM3.5 1.3592H10.5V3.93683H9.5V2.64802C9.49935 2.17373 9.05201 1.78937 8.5 1.78881H5.5C4.94799 1.78937 4.50065 2.17373 4.5 2.64802V3.93683H3.5V1.3592ZM8.5 3.93683H5.5V2.64802H8.5V3.93683ZM12 7.85976L11.2773 7.44584C11.1952 7.39876 11.0987 7.37364 11 7.37365H3C2.90129 7.37365 2.80477 7.39877 2.72264 7.44582L2 7.85976V5.22564C2.00031 4.98848 2.22399 4.7963 2.5 4.79603H11.5C11.776 4.7963 11.9997 4.98848 12 5.22564V7.85976Z" fill="#6091ED" stroke="white" stroke-width="0.1"/>
</svg>
