<svg width="14" height="13" viewBox="0 0 14 13" fill="none" xmlns="http://www.w3.org/2000/svg">
<path d="M9.05469 8.875L12.4297 12.25M6.05469 10C6.59639 10 7.13279 9.8933 7.63326 9.686C8.13372 9.4787 8.58846 9.17486 8.9715 8.79182C9.35454 8.40877 9.65839 7.95404 9.86569 7.45357C10.073 6.9531 10.1797 6.4167 10.1797 5.875C10.1797 5.3333 10.073 4.7969 9.86569 4.29643C9.65839 3.79596 9.35454 3.34123 8.9715 2.95818C8.58846 2.57514 8.13372 2.2713 7.63326 2.064C7.13279 1.8567 6.59639 1.75 6.05469 1.75C4.96067 1.75 3.91146 2.1846 3.13787 2.95818C2.36428 3.73177 1.92969 4.78098 1.92969 5.875C1.92969 6.96902 2.36428 8.01823 3.13787 8.79182C3.91146 9.5654 4.96067 10 6.05469 10Z" stroke="white" stroke-width="2"/>
</svg>
