<svg width="32" height="32" viewBox="0 0 32 32" fill="none" xmlns="http://www.w3.org/2000/svg">
<g clip-path="url(#clip0_5373_1888)">
<path d="M21.333 7.5C21.9405 7.5 22.4421 7.70935 22.8662 8.13867C23.2906 8.56838 23.5 9.07931 23.5 9.7002C23.5 10.321 23.2905 10.8311 22.8662 11.2607C22.442 11.6902 21.9406 11.9004 21.333 11.9004C21.0391 11.9004 20.7707 11.8476 20.5234 11.7461C20.2675 11.641 20.0455 11.4982 19.8545 11.3174L19.5811 11.0576L19.2568 11.25L13.0127 14.9395L12.6807 15.1357L12.7852 15.5059C12.8069 15.5828 12.8194 15.6521 12.8242 15.7139C12.8306 15.795 12.8335 15.8891 12.833 15.9971C12.8325 16.1083 12.8299 16.2076 12.8242 16.2939C12.8204 16.3518 12.8083 16.4159 12.7871 16.4873L12.6758 16.8623L13.0127 17.0605L19.2568 20.75L19.582 20.9424L19.8555 20.6826C20.0461 20.5016 20.2672 20.3593 20.5225 20.2549C20.77 20.1537 21.0387 20.1002 21.333 20.0996C21.9406 20.0996 22.442 20.3098 22.8662 20.7393C23.2905 21.1689 23.5 21.679 23.5 22.2998C23.5 22.9207 23.2906 23.4316 22.8662 23.8613C22.4421 24.2906 21.9405 24.5 21.333 24.5C20.7255 24.4999 20.2239 24.2907 19.7998 23.8613C19.3755 23.4316 19.167 22.9206 19.167 22.2998C19.167 22.2502 19.1827 22.0766 19.2285 21.7363L19.2734 21.4082L18.9873 21.2393L12.7432 17.5498L12.418 17.3574L12.1445 17.6172C11.9536 17.7984 11.7322 17.9419 11.4766 18.0469C11.2296 18.1483 10.9616 18.2006 10.668 18.2002H10.667C10.0595 18.2002 9.55789 17.9908 9.13379 17.5615C8.70938 17.1318 8.5 16.6209 8.5 16C8.5 15.3791 8.70938 14.8682 9.13379 14.4385C9.55789 14.0092 10.0595 13.7998 10.667 13.7998C10.961 13.7998 11.2293 13.8525 11.4766 13.9541C11.7325 14.0592 11.9545 14.202 12.1455 14.3828L12.4189 14.6426L12.7432 14.4502L18.9873 10.7607L19.3193 10.5645L19.2148 10.1943C19.1933 10.118 19.1811 10.0501 19.1768 9.99023C19.1707 9.9073 19.1676 9.81087 19.167 9.7002C19.167 9.07936 19.3755 8.56836 19.7998 8.13867C20.2239 7.70928 20.7255 7.50007 21.333 7.5Z" fill="white" stroke="white"/>
</g>
<defs>
<clipPath id="clip0_5373_1888">
<rect width="32" height="32" fill="white"/>
</clipPath>
</defs>
</svg>
