<svg width="32" height="32" viewBox="0 0 32 32" fill="none" xmlns="http://www.w3.org/2000/svg">
<path d="M16 25.9988C21.25 22.4513 26.5 18.4988 26.5 13.2488C26.502 12.5588 26.3675 11.8752 26.1044 11.2374C25.8413 10.5995 25.4546 10.02 24.9667 9.53209C24.4788 9.04418 23.8993 8.65755 23.2614 8.39441C22.6236 8.13127 21.94 7.99683 21.25 7.99881C19.9 7.99881 18.565 8.50881 17.5375 9.53631L16 11.0738L14.4625 9.53631C13.976 9.04695 13.3975 8.65861 12.7604 8.39361C12.1233 8.12861 11.44 7.99219 10.75 7.99219C10.06 7.99219 9.37673 8.12861 8.7396 8.39361C8.10247 8.65861 7.52401 9.04695 7.0375 9.53631C6.54934 10.0234 6.16222 10.6021 5.89837 11.2392C5.63452 11.8763 5.49914 12.5592 5.5 13.2488C5.5 18.4988 10.75 22.4513 16 25.9988Z" fill="black" fill-opacity="0.5" stroke="white" stroke-width="1.5"/>
</svg>
