<svg width="12" height="12" viewBox="0 0 12 12" fill="none" xmlns="http://www.w3.org/2000/svg">
<g clip-path="url(#clip0_5370_10234)">
<path d="M5.38612 1.34353C5.55014 1.21593 5.74984 1.1426 5.95746 1.13372C6.16509 1.12485 6.37031 1.18089 6.54462 1.29403L6.61412 1.34403L10.8061 4.60403C11.1666 4.88453 10.9911 5.45003 10.5566 5.49653L10.4986 5.49953H10.0001V9.49953C10.0002 9.75182 9.90492 9.99481 9.73337 10.1798C9.56183 10.3648 9.3267 10.4781 9.07512 10.497L9.00012 10.4995H3.00012C2.74792 10.4995 2.50505 10.4041 2.32016 10.2326C2.13528 10.0611 2.02204 9.82602 2.00312 9.57453L2.00012 9.49953V5.49953H1.50162C1.04512 5.49953 0.835621 4.94553 1.15012 4.64203L1.19412 4.60403L5.38612 1.34353ZM6.00012 2.13303L2.81262 4.61203C2.92712 4.70453 3.00012 4.84603 3.00012 5.00453V9.49953H4.50012V6.99953C4.50012 6.60171 4.65816 6.22017 4.93946 5.93887C5.22077 5.65757 5.6023 5.49953 6.00012 5.49953C6.39795 5.49953 6.77948 5.65757 7.06078 5.93887C7.34209 6.22017 7.50012 6.60171 7.50012 6.99953V9.49953H9.00012V5.00453C9.00012 4.84603 9.07312 4.70453 9.18762 4.61203L6.00012 2.13303ZM6.00012 6.49953C5.86751 6.49953 5.74034 6.55221 5.64657 6.64598C5.5528 6.73975 5.50012 6.86692 5.50012 6.99953V9.49953H6.50012V6.99953C6.50012 6.86692 6.44744 6.73975 6.35367 6.64598C6.25991 6.55221 6.13273 6.49953 6.00012 6.49953Z" fill="#6091ED"/>
</g>
<defs>
<clipPath id="clip0_5370_10234">
<rect width="11.3299" height="12" fill="white"/>
</clipPath>
</defs>
</svg>
