<svg width="10" height="10" viewBox="0 0 10 10" fill="none" xmlns="http://www.w3.org/2000/svg">
<g clip-path="url(#clip0_5370_10227)">
<path fill-rule="evenodd" clip-rule="evenodd" d="M5.5 0C6.69347 0 7.83807 0.474106 8.68198 1.31802C9.52589 2.16193 10 3.30653 10 4.5C10 6.037 9.162 7.295 8.279 8.1975C7.83776 8.64345 7.35639 9.04782 6.841 9.4055L6.628 9.5505L6.528 9.617L6.3395 9.737L6.1715 9.8395L5.9635 9.9605C5.82225 10.0409 5.66252 10.0832 5.5 10.0832C5.33748 10.0832 5.17775 10.0409 5.0365 9.9605L4.8285 9.8395L4.5685 9.6795L4.4725 9.617L4.2675 9.4805C3.71149 9.10416 3.19353 8.67446 2.721 8.1975C1.838 7.2945 1 6.037 1 4.5C1 3.30653 1.47411 2.16193 2.31802 1.31802C3.16193 0.474106 4.30653 0 5.5 0ZM5.5 1C4.57174 1 3.6815 1.36875 3.02513 2.02513C2.36875 2.6815 2 3.57174 2 4.5C2 5.661 2.636 6.68 3.4355 7.498C3.77931 7.84595 4.15087 8.16534 4.5465 8.453L4.7755 8.616C4.8495 8.6675 4.9205 8.7155 4.989 8.76L5.184 8.885L5.3555 8.9895L5.5 9.074L5.7275 8.9395L5.911 8.8245C6.0085 8.7625 6.1135 8.693 6.2245 8.616L6.4535 8.453C6.84913 8.16534 7.22069 7.84595 7.5645 7.498C8.364 6.6805 9 5.661 9 4.5C9 3.57174 8.63125 2.6815 7.97487 2.02513C7.3185 1.36875 6.42826 1 5.5 1ZM5.5 2.5C6.03043 2.5 6.53914 2.71071 6.91421 3.08579C7.28929 3.46086 7.5 3.96957 7.5 4.5C7.5 5.03043 7.28929 5.53914 6.91421 5.91421C6.53914 6.28929 6.03043 6.5 5.5 6.5C4.96957 6.5 4.46086 6.28929 4.08579 5.91421C3.71071 5.53914 3.5 5.03043 3.5 4.5C3.5 3.96957 3.71071 3.46086 4.08579 3.08579C4.46086 2.71071 4.96957 2.5 5.5 2.5ZM5.5 3.5C5.23478 3.5 4.98043 3.60536 4.79289 3.79289C4.60536 3.98043 4.5 4.23478 4.5 4.5C4.5 4.76522 4.60536 5.01957 4.79289 5.20711C4.98043 5.39464 5.23478 5.5 5.5 5.5C5.76522 5.5 6.01957 5.39464 6.20711 5.20711C6.39464 5.01957 6.5 4.76522 6.5 4.5C6.5 4.23478 6.39464 3.98043 6.20711 3.79289C6.01957 3.60536 5.76522 3.5 5.5 3.5Z" fill="#6091ED"/>
</g>
<defs>
<clipPath id="clip0_5370_10227">
<rect width="10" height="10" fill="white"/>
</clipPath>
</defs>
</svg>
