<svg width="12" height="12" viewBox="0 0 12 12" fill="none" xmlns="http://www.w3.org/2000/svg">
<g clip-path="url(#clip0_5370_10243)">
<path fill-rule="evenodd" clip-rule="evenodd" d="M5.79706 1.82554C5.08047 1.04344 3.89385 0.900574 3.0112 1.49517L2.92101 1.55932L2.75961 1.6804C2.31228 2.01588 2.03752 2.53045 2.00493 3.08489L2.00166 3.19627V10.4989C2.00166 10.775 2.22551 10.9989 2.50166 10.9989C2.75808 10.9989 2.96941 10.8058 2.99829 10.5572L3.00166 10.4989V3.19627C3.00166 2.94278 3.10906 2.7026 3.29483 2.5339L3.35961 2.4804L3.52101 2.35932C3.90871 2.06854 4.42175 2.05858 4.81325 2.2981L4.88986 2.34932L4.51061 2.56828C3.58487 3.10275 3.24806 4.26552 3.72785 5.20697L3.77856 5.30035L4.02856 5.73335C4.15675 5.95542 4.42958 6.0419 4.65938 5.94259L4.71156 5.91635L9.04169 3.41635C9.26376 3.28814 9.35027 3.01531 9.25095 2.78552L9.22471 2.73334L8.97471 2.30033C8.44024 1.3746 7.27746 1.03779 6.33603 1.51757L6.24266 1.56828L5.79706 1.82554ZM8.62666 7.6974C8.38751 7.83545 8.30557 8.14125 8.44365 8.3804L8.69365 8.8134C8.83172 9.05255 9.13751 9.1345 9.37666 8.99645C9.6158 8.85835 9.69774 8.55255 9.55967 8.3134L9.30967 7.8804C9.1716 7.64125 8.8658 7.5593 8.62666 7.6974ZM7.51063 7.76435C7.37256 7.52525 7.06677 7.4433 6.82761 7.58135C6.60554 7.70959 6.51906 7.98242 6.61837 8.21218L6.64461 8.26435L6.89461 8.6974C7.03268 8.93655 7.33847 9.01845 7.57762 8.8804C7.79969 8.75221 7.8862 8.47938 7.78688 8.24958L7.76063 8.1974L7.51063 7.76435ZM9.4257 6.08135C9.18655 6.21945 9.10461 6.52525 9.24268 6.76435L9.49268 7.1974C9.63075 7.43655 9.93655 7.51845 10.1757 7.3804C10.4148 7.24235 10.4968 6.93655 10.3587 6.6974L10.1087 6.26435C9.97064 6.02525 9.66484 5.9433 9.4257 6.08135ZM7.62666 5.96535C7.38751 6.1034 7.30557 6.4092 7.44365 6.64835L7.69365 7.08135C7.83172 7.3205 8.13751 7.40245 8.37666 7.26435C8.6158 7.1263 8.69774 6.8205 8.55967 6.58135L8.30967 6.14835C8.1716 5.9092 7.8658 5.82725 7.62666 5.96535ZM6.51066 6.0323C6.37256 5.7932 6.06676 5.71125 5.82761 5.8493C5.60554 5.97754 5.51906 6.25037 5.61837 6.48013L5.64461 6.5323L5.89461 6.96535C6.03266 7.2045 6.33846 7.2864 6.57761 7.14835C6.79968 7.02016 6.8862 6.74733 6.7869 6.51753L6.76066 6.46535L6.51066 6.0323ZM8.4257 4.34931C8.18655 4.48738 8.10461 4.79318 8.24268 5.0323L8.49268 5.46535C8.63075 5.7045 8.93655 5.7864 9.1757 5.64835C9.41484 5.5103 9.49678 5.2045 9.35871 4.96534L9.10871 4.53233C8.97064 4.29318 8.66484 4.21124 8.4257 4.34931ZM8.10868 2.80033L4.64456 4.80033C4.36846 4.32204 4.53231 3.71045 5.01061 3.4343L6.74266 2.4343C7.22095 2.15816 7.83254 2.32204 8.10868 2.80033Z" fill="#6091ED"/>
</g>
<defs>
<clipPath id="clip0_5370_10243">
<rect width="12" height="12" fill="white" transform="matrix(-1 0 0 1 12 0)"/>
</clipPath>
</defs>
</svg>
