{
	"asset":{
		"generator":"Khronos glTF Blender I/O v4.1.63",
		"version":"2.0"
	},
	"scene":0,
	"scenes":[
		{
			"name":"Scene",
			"nodes":[
				0
			]
		}
	],
	"nodes":[
		{
			"mesh":0,
			"name":"Tower"
		}
	],
	"materials":[
		{
			"doubleSided":true,
			"name":"color_10658465",
			"pbrMetallicRoughness":{
				"baseColorFactor":[
					0.6352940201759338,
					0.6352940201759338,
					0.6313729882240295,
					1
				],
				"metallicFactor":0.5016351938247681,
				"roughnessFactor":0.5099927186965942
			}
		},
		{
			"doubleSided":true,
			"name":"color_13158600",
			"pbrMetallicRoughness":{
				"baseColorFactor":[
					0.784313976764679,
					0.784313976764679,
					0.784313976764679,
					1
				],
				"metallicFactor":0.5016351938247681,
				"roughnessFactor":0
			}
		},
		{
			"doubleSided":true,
			"name":"color_13750737",
			"pbrMetallicRoughness":{
				"baseColorFactor":[
					0.8196079730987549,
					0.8196079730987549,
					0.8196079730987549,
					1
				],
				"metallicFactor":0.46675145626068115
			}
		},
		{
			"doubleSided":true,
			"name":"color_5933430",
			"pbrMetallicRoughness":{
				"baseColorFactor":[
					0.35294100642204285,
					0.5372549891471863,
					0.4627450108528137,
					1
				],
				"metallicFactor":0.46675145626068115,
				"roughnessFactor":0
			}
		},
		{
			"doubleSided":true,
			"name":"color_7180689",
			"pbrMetallicRoughness":{
				"baseColorFactor":[
					0.15886639058589935,
					0.15886639058589935,
					0.15886639058589935,
					1
				],
				"metallicFactor":0.20385503768920898
			}
		}
	],
	"meshes":[
		{
			"name":"Object_0",
			"primitives":[
				{
					"attributes":{
						"POSITION":0,
						"NORMAL":1
					},
					"indices":2,
					"material":0
				},
				{
					"attributes":{
						"POSITION":3,
						"NORMAL":4
					},
					"indices":5,
					"material":1
				},
				{
					"attributes":{
						"POSITION":6,
						"NORMAL":7
					},
					"indices":8,
					"material":2
				},
				{
					"attributes":{
						"POSITION":9,
						"NORMAL":10
					},
					"indices":11,
					"material":3
				},
				{
					"attributes":{
						"POSITION":12,
						"NORMAL":13
					},
					"indices":14,
					"material":4
				}
			]
		}
	],
	"accessors":[
		{
			"bufferView":0,
			"componentType":5126,
			"count":27813,
			"max":[
				12.965015411376953,
				70.14891815185547,
				7.924114227294922
			],
			"min":[
				-13.227081298828125,
				0.2756195068359375,
				-4.856130599975586
			],
			"type":"VEC3"
		},
		{
			"bufferView":1,
			"componentType":5126,
			"count":27813,
			"type":"VEC3"
		},
		{
			"bufferView":2,
			"componentType":5123,
			"count":56730,
			"type":"SCALAR"
		},
		{
			"bufferView":3,
			"componentType":5126,
			"count":11631,
			"max":[
				10.504518508911133,
				86.51240539550781,
				2.1670312881469727
			],
			"min":[
				-10.790473937988281,
				48.640838623046875,
				-2.419523239135742
			],
			"type":"VEC3"
		},
		{
			"bufferView":4,
			"componentType":5126,
			"count":11631,
			"type":"VEC3"
		},
		{
			"bufferView":5,
			"componentType":5123,
			"count":34380,
			"type":"SCALAR"
		},
		{
			"bufferView":6,
			"componentType":5126,
			"count":195,
			"max":[
				4.274495601654053,
				45.26303482055664,
				1.0380700826644897
			],
			"min":[
				-4.536562442779541,
				37.17731857299805,
				-1.3001171350479126
			],
			"type":"VEC3"
		},
		{
			"bufferView":7,
			"componentType":5126,
			"count":195,
			"type":"VEC3"
		},
		{
			"bufferView":8,
			"componentType":5123,
			"count":417,
			"type":"SCALAR"
		},
		{
			"bufferView":9,
			"componentType":5126,
			"count":82,
			"max":[
				9.03538703918457,
				45.0126838684082,
				1.0380700826644897
			],
			"min":[
				-6.623397350311279,
				43.655826568603516,
				-1.3001171350479126
			],
			"type":"VEC3"
		},
		{
			"bufferView":10,
			"componentType":5126,
			"count":82,
			"type":"VEC3"
		},
		{
			"bufferView":11,
			"componentType":5123,
			"count":216,
			"type":"SCALAR"
		},
		{
			"bufferView":12,
			"componentType":5126,
			"count":25405,
			"max":[
				12.96501350402832,
				69.88040924072266,
				7.9241132736206055
			],
			"min":[
				-13.227081298828125,
				1.441368818283081,
				-4.856130599975586
			],
			"type":"VEC3"
		},
		{
			"bufferView":13,
			"componentType":5126,
			"count":25405,
			"type":"VEC3"
		},
		{
			"bufferView":14,
			"componentType":5123,
			"count":51573,
			"type":"SCALAR"
		}
	],
	"bufferViews":[
		{
			"buffer":0,
			"byteLength":333756,
			"byteOffset":0,
			"target":34962
		},
		{
			"buffer":0,
			"byteLength":333756,
			"byteOffset":333756,
			"target":34962
		},
		{
			"buffer":0,
			"byteLength":113460,
			"byteOffset":667512,
			"target":34963
		},
		{
			"buffer":0,
			"byteLength":139572,
			"byteOffset":780972,
			"target":34962
		},
		{
			"buffer":0,
			"byteLength":139572,
			"byteOffset":920544,
			"target":34962
		},
		{
			"buffer":0,
			"byteLength":68760,
			"byteOffset":1060116,
			"target":34963
		},
		{
			"buffer":0,
			"byteLength":2340,
			"byteOffset":1128876,
			"target":34962
		},
		{
			"buffer":0,
			"byteLength":2340,
			"byteOffset":1131216,
			"target":34962
		},
		{
			"buffer":0,
			"byteLength":834,
			"byteOffset":1133556,
			"target":34963
		},
		{
			"buffer":0,
			"byteLength":984,
			"byteOffset":1134392,
			"target":34962
		},
		{
			"buffer":0,
			"byteLength":984,
			"byteOffset":1135376,
			"target":34962
		},
		{
			"buffer":0,
			"byteLength":432,
			"byteOffset":1136360,
			"target":34963
		},
		{
			"buffer":0,
			"byteLength":304860,
			"byteOffset":1136792,
			"target":34962
		},
		{
			"buffer":0,
			"byteLength":304860,
			"byteOffset":1441652,
			"target":34962
		},
		{
			"buffer":0,
			"byteLength":103146,
			"byteOffset":1746512,
			"target":34963
		}
	],
	"buffers":[
		{
			"byteLength":1849660,
			"uri":"tower.bin"
		}
	]
}
