<svg width="14" height="16" viewBox="0 0 14 16" fill="none" xmlns="http://www.w3.org/2000/svg">
<path d="M2.67969 8H0.679688M2.67969 8C2.67969 8.53043 2.8904 9.03914 3.26547 9.41421C3.64055 9.78929 4.14925 10 4.67969 10C5.21012 10 5.71883 9.78929 6.0939 9.41421C6.46897 9.03914 6.67969 8.53043 6.67969 8M2.67969 8C2.67969 7.46957 2.8904 6.96086 3.26547 6.58579C3.64055 6.21071 4.14925 6 4.67969 6C5.21012 6 5.71883 6.21071 6.0939 6.58579C6.46897 6.96086 6.67969 7.46957 6.67969 8M13.6797 8H6.67969M13.6797 3H11.6797M11.6797 3C11.6797 3.53043 11.469 4.03914 11.0939 4.41421C10.7188 4.78929 10.2101 5 9.67969 5C9.14925 5 8.64055 4.78929 8.26547 4.41421C7.8904 4.03914 7.67969 3.53043 7.67969 3M11.6797 3C11.6797 2.46957 11.469 1.96086 11.0939 1.58579C10.7188 1.21071 10.2101 1 9.67969 1C9.14925 1 8.64055 1.21071 8.26547 1.58579C7.8904 1.96086 7.67969 2.46957 7.67969 3M7.67969 3H0.679688M13.6797 13H11.6797M11.6797 13C11.6797 13.5304 11.469 14.0391 11.0939 14.4142C10.7188 14.7893 10.2101 15 9.67969 15C9.14925 15 8.64055 14.7893 8.26547 14.4142C7.8904 14.0391 7.67969 13.5304 7.67969 13M11.6797 13C11.6797 12.4696 11.469 11.9609 11.0939 11.5858C10.7188 11.2107 10.2101 11 9.67969 11C9.14925 11 8.64055 11.2107 8.26547 11.5858C7.8904 11.9609 7.67969 12.4696 7.67969 13M7.67969 13H0.679688" stroke="#222222" stroke-width="1.5"/>
</svg>
